<svg width="104" height="104" viewBox="0 0 104 104" fill="none" xmlns="http://www.w3.org/2000/svg">
<path d="M61.4938 41.7149C58.319 39.8843 54.6073 38.938 50.681 39.2017C47.138 39.4344 43.8711 40.6445 41.1411 42.5216L33.6871 33.4306C27.8129 37.8055 23.5184 44.2281 21.8619 51.6747L9.57667 49.8286C12.6288 34.2218 23.9938 21.3455 39.1625 16.6139M34.1933 51.1938C33.1043 53.8621 32.5828 56.8252 32.7822 59.9125C32.9969 63.1858 34.0092 66.2265 35.6043 68.8328C37.184 71.4236 39.3466 73.5955 41.8773 75.1779L36.1411 85.4324C40.773 88.2249 46.1718 89.8383 51.954 89.8383C55.8037 89.8383 59.4693 89.1247 62.8742 87.837L66.9386 99.2861C63.3957 100.605 59.6227 101.489 55.681 101.83C43.1043 102.947 31.3098 98.4794 22.6902 90.4743M68.273 68.9259C65.1135 74.0299 59.6533 77.5825 53.2576 78.0014M56.6012 63.2479C55.4355 64.4424 53.9171 65.094 52.3681 65.1871C50.5736 65.2957 48.7484 64.6596 47.3681 63.2944C46.1257 62.0533 45.4816 60.4244 45.4355 58.78C45.3895 57.0424 46.0184 55.2894 47.3221 53.9552C48.1963 53.0554 49.2699 52.4814 50.3896 52.1867C51.6165 51.8764 52.9049 51.9384 54.1012 52.3573C54.9908 52.6676 55.8343 53.1795 56.5398 53.9087M64.73 44.1196C68.6717 47.6722 71.1564 52.8538 71.1564 58.6093H82.8435C82.8435 49.3942 78.9018 41.1099 72.6288 35.4009L80.4815 25.5808C88.503 32.7326 93.9325 42.894 94.9294 54.5137C95.3435 59.2609 94.9907 63.8995 93.9631 68.2898M64.546 14.7367C64.546 21.771 58.9083 27.4734 51.9539 27.4734C44.9996 27.4734 39.3619 21.771 39.3619 14.7367C39.3619 7.70242 44.9996 2 51.9539 2C58.9083 2 64.546 7.70242 64.546 14.7367ZM102 80.3439C102 87.3782 96.3624 93.0807 89.408 93.0807C82.4536 93.0807 76.816 87.3782 76.816 80.3439C76.816 73.3097 82.4536 67.6072 89.408 67.6072C96.3624 67.6072 102 73.3097 102 80.3439ZM27.184 80.3439C27.184 87.3782 21.5464 93.0807 14.592 93.0807C7.63763 93.0807 2 87.3782 2 80.3439C2 73.3097 7.63763 67.6072 14.592 67.6072C21.5464 67.6072 27.184 73.3097 27.184 80.3439Z" stroke="black" stroke-width="3.5" stroke-miterlimit="10"/>
</svg>
